<?xml version="1.0" standalone="no"?>
<!DOCTYPE svg PUBLIC "-//W3C//DTD SVG 20010904//EN"
 "http://www.w3.org/TR/2001/REC-SVG-20010904/DTD/svg10.dtd">
<svg version="1.0" xmlns="http://www.w3.org/2000/svg"
 width="50px" height="50px" viewBox="0 0 50 50"
 preserveAspectRatio="xMidYMid meet">

<g>
<path fill="white"  d="M 28.78125 2.03125 C 28.528522 2.0526067 28.278833 2.086093 28.03125 2.15625 L 10.40625 7.15625 C 8.4259804 7.7177785 7.2512454 9.8005907 7.8125 11.78125 L 16.0625 40.78125 A 1.0045064 1.0045064 0 0 0 16.15625 41.0625 L 17.34375 45.28125 C 17.905279 47.26152 19.988091 48.405005 21.96875 47.84375 L 39.59375 42.84375 C 41.57402 42.282221 42.748755 40.199409 42.1875 38.21875 L 41.03125 34.15625 A 1.002073 1.002073 0 0 0 40.84375 33.5 L 32.65625 4.71875 C 32.235104 3.2335478 30.980276 2.2147544 29.53125 2.03125 C 29.289746 2.000666 29.033978 2.0098933 28.78125 2.03125 z M 28.9375 4 C 29.753305 3.9386121 30.516838 4.4589859 30.75 5.28125 L 38.71875 33.40625 L 17.71875 39.34375 L 9.75 11.21875 C 9.4832546 10.277409 10.02902 9.3289715 10.96875 9.0625 L 28.59375 4.0625 C 28.711418 4.0291568 28.820956 4.0087697 28.9375 4 z M 38.1875 10.65625 A 1.0001 1.0001 0 0 0 37.40625 11.96875 L 42.40625 29.59375 A 1.0087508 1.0087508 0 1 0 44.34375 29.03125 L 39.34375 11.40625 A 1.0001 1.0001 0 0 0 38.375 10.65625 A 1.0001 1.0001 0 0 0 38.28125 10.65625 A 1.0001 1.0001 0 0 0 38.1875 10.65625 z M 43.84375 13.8125 A 1.0001 1.0001 0 0 0 43.0625 15.125 L 45.5625 23.9375 A 1.0087508 1.0087508 0 1 0 47.5 23.375 L 45 14.5625 A 1.0001 1.0001 0 0 0 44.03125 13.8125 A 1.0001 1.0001 0 0 0 43.9375 13.8125 A 1.0001 1.0001 0 0 0 43.84375 13.8125 z M 6.53125 19.65625 A 1.0001 1.0001 0 0 0 6.4375 19.6875 A 1.0001 1.0001 0 0 0 5.65625 20.96875 L 10.65625 38.59375 A 1.0087508 1.0087508 0 1 0 12.59375 38.03125 L 7.59375 20.40625 A 1.0001 1.0001 0 0 0 6.625 19.65625 A 1.0001 1.0001 0 0 0 6.53125 19.65625 z M 3.375 25.3125 A 1.0001 1.0001 0 0 0 3.28125 25.34375 A 1.0001 1.0001 0 0 0 2.5 26.625 L 5 35.4375 A 1.0087508 1.0087508 0 1 0 6.9375 34.875 L 4.4375 26.0625 A 1.0001 1.0001 0 0 0 3.46875 25.3125 A 1.0001 1.0001 0 0 0 3.375 25.3125 z M 39.28125 35.34375 L 40.25 38.78125 C 40.516745 39.722591 39.97098 40.671029 39.03125 40.9375 L 21.40625 45.9375 C 20.464909 46.204245 19.516471 45.65848 19.25 44.71875 L 18.28125 41.28125 L 39.28125 35.34375 z M 29.40625 39.5 C 29.31514 39.506808 29.21632 39.505344 29.125 39.53125 C 28.394437 39.738502 27.980248 40.519437 28.1875 41.25 C 28.394752 41.980563 29.144437 42.394752 29.875 42.1875 C 30.605562 41.980248 31.019752 41.230563 30.8125 40.5 C 30.631154 39.860757 30.04402 39.452345 29.40625 39.5 z"/>
</g>
</svg>
